<?xml version="1.0" encoding="UTF-8"?>
<svg width="2458px" height="512px" viewBox="0 0 681 281" xmlns="http://www.w3.org/2000/svg">
<path d="M72.8571 0C32.6193 0 0 32.5573 0 72.7188V162.448C0 202.609 32.6192 235.167 72.8571 235.167H105.579V250.646C105.984 273.222 146.279 297.316 192.667 266.125C192.989 265.909 193.317 265.689 193.653 265.464C208.789 255.324 237.408 236.151 237.991 163.606C237.997 163.221 238 162.835 238 162.448V72.7188C238 32.5573 205.381 0 165.143 0H72.8571Z" fill="#2A83FF"/>
<mask id="mask0_731:1157" style="mask-type:alpha" maskUnits="userSpaceOnUse" x="0" y="0" width="238" height="281">
<path d="M72.8571 0C32.6193 0 0 32.5573 0 72.7188V162.448C0 202.609 32.6192 235.167 72.8571 235.167H105.579V250.646C105.984 273.222 146.279 297.316 192.667 266.125C192.989 265.909 193.317 265.689 193.653 265.464C208.789 255.324 237.408 236.151 237.991 163.606C237.997 163.221 238 162.835 238 162.448V72.7188C238 32.5573 205.381 0 165.143 0H72.8571Z" fill="#8958CC"/>
</mask>
<g mask="url(#mask0_731:1157)">
<ellipse cx="77.2458" cy="162.533" rx="163.14" ry="162.533" fill="#1B7AFF"/>
<ellipse cx="15.5094" cy="215.52" rx="168.211" ry="167.891" fill="#1174FF"/>
<ellipse cx="14.9124" cy="214.329" rx="94.8421" ry="94.662" fill="#006AFF"/>
</g>
<ellipse cx="74.2628" cy="117.583" rx="13.4211" ry="13.3956" fill="white"/>
<ellipse cx="119" cy="117.583" rx="13.4211" ry="13.3956" fill="white"/>
<ellipse cx="163.736" cy="117.583" rx="13.4211" ry="13.3956" fill="white"/>
<path d="M294 174L345.2 103.6L294.6 34H324.7L360.3 83L396 34H426.1L375.5 103.6L426.7 174H396.4L360.3 124.4L324.3 174H294ZM473.027 53V74H500.327V98.4H473.027V174H448.627V98.4H437.727V74H448.627V53C448.627 47.2667 450.027 42.0333 452.827 37.3C455.693 32.5 459.527 28.7 464.327 25.9C469.127 23.0333 474.427 21.6 480.227 21.6C484.427 21.6 488.593 22.4667 492.727 24.2C496.86 25.9333 500.527 28.6 503.727 32.2L486.127 49.4C485.527 48.2667 484.66 47.4333 483.527 46.9C482.46 46.3 481.36 46 480.227 46C478.293 46 476.593 46.7 475.127 48.1C473.727 49.4333 473.027 51.0667 473.027 53ZM516.016 74H540.416V174H516.016V74ZM528.316 59.1C524.782 59.1 521.782 57.9333 519.316 55.6C516.849 53.2 515.616 50.2 515.616 46.6C515.616 43.0667 516.849 40.1 519.316 37.7C521.782 35.3 524.782 34.1 528.316 34.1C531.849 34.1 534.816 35.3 537.216 37.7C539.682 40.1 540.916 43.0667 540.916 46.6C540.916 50.2 539.682 53.2 537.216 55.6C534.816 57.9333 531.849 59.1 528.316 59.1ZM635.728 174H604.228L567.828 73.9H593.828L620.028 145.9L646.128 73.9H672.128L635.728 174Z" fill="black"/>
<path d="M302.63 233.494C300.831 233.494 299.14 233.139 297.557 232.43C295.974 231.708 294.58 230.714 293.377 229.447C292.174 228.18 291.23 226.717 290.546 225.058C289.862 223.386 289.52 221.6 289.52 219.7C289.52 217.8 289.862 216.02 290.546 214.361C291.23 212.689 292.174 211.22 293.377 209.953C294.58 208.686 295.974 207.698 297.557 206.989C299.14 206.267 300.831 205.906 302.63 205.906C304.441 205.906 306.139 206.267 307.722 206.989C309.305 207.698 310.699 208.686 311.902 209.953C313.105 211.22 314.043 212.689 314.714 214.361C315.398 216.02 315.74 217.8 315.74 219.7C315.74 221.6 315.398 223.386 314.714 225.058C314.043 226.717 313.105 228.18 311.902 229.447C310.699 230.714 309.305 231.708 307.722 232.43C306.139 233.139 304.441 233.494 302.63 233.494ZM302.63 229.542C303.897 229.542 305.081 229.282 306.183 228.763C307.285 228.244 308.254 227.534 309.09 226.635C309.939 225.723 310.597 224.678 311.066 223.5C311.547 222.309 311.788 221.043 311.788 219.7C311.788 218.357 311.547 217.091 311.066 215.9C310.597 214.709 309.939 213.664 309.09 212.765C308.254 211.853 307.285 211.144 306.183 210.637C305.081 210.118 303.897 209.858 302.63 209.858C301.363 209.858 300.179 210.118 299.077 210.637C297.975 211.156 297 211.872 296.151 212.784C295.315 213.683 294.656 214.728 294.175 215.919C293.706 217.097 293.472 218.357 293.472 219.7C293.472 221.055 293.706 222.328 294.175 223.519C294.656 224.697 295.315 225.742 296.151 226.654C297 227.553 297.975 228.263 299.077 228.782C300.179 229.289 301.363 229.542 302.63 229.542ZM318.784 233V214H322.736V216.299C323.344 215.552 323.984 214.944 324.655 214.475C325.339 213.994 326.15 213.753 327.087 213.753C328.48 213.753 329.715 214.07 330.792 214.703C331.881 215.324 332.793 216.191 333.528 217.306C334.263 216.179 335.175 215.305 336.264 214.684C337.366 214.063 338.595 213.753 339.95 213.753C341.584 213.753 343.022 214.165 344.263 214.988C345.504 215.811 346.48 216.907 347.189 218.275C347.898 219.63 348.253 221.125 348.253 222.759V233H344.301V222.759C344.301 221.822 344.117 220.973 343.75 220.213C343.395 219.453 342.895 218.845 342.249 218.389C341.603 217.933 340.837 217.705 339.95 217.705C339.089 217.705 338.316 217.933 337.632 218.389C336.961 218.845 336.435 219.453 336.055 220.213C335.688 220.973 335.504 221.822 335.504 222.759V233H331.552V222.759C331.552 221.822 331.362 220.973 330.982 220.213C330.602 219.453 330.076 218.845 329.405 218.389C328.734 217.933 327.961 217.705 327.087 217.705C326.251 217.705 325.504 217.946 324.845 218.427C324.199 218.908 323.686 219.542 323.306 220.327C322.926 221.112 322.736 221.974 322.736 222.911V233H318.784ZM369.81 223.044V233H365.858V223.12C365.858 222.043 365.63 221.068 365.174 220.194C364.731 219.307 364.117 218.604 363.331 218.085C362.559 217.553 361.678 217.287 360.69 217.287C359.702 217.287 358.835 217.553 358.087 218.085C357.353 218.604 356.776 219.307 356.358 220.194C355.953 221.068 355.75 222.043 355.75 223.12V233H351.798V214H355.75V216.565C356.409 215.602 357.207 214.849 358.144 214.304C359.082 213.747 360.139 213.468 361.317 213.468C363.027 213.468 364.509 213.905 365.763 214.779C367.03 215.653 368.018 216.812 368.727 218.256C369.437 219.7 369.798 221.296 369.81 223.044ZM373.999 214H377.951V233H373.999V214ZM375.994 210.865C375.398 210.865 374.898 210.669 374.493 210.276C374.087 209.883 373.885 209.389 373.885 208.794C373.885 208.211 374.087 207.724 374.493 207.331C374.898 206.926 375.398 206.723 375.994 206.723C376.576 206.723 377.07 206.926 377.476 207.331C377.881 207.724 378.084 208.211 378.084 208.794C378.084 209.389 377.881 209.883 377.476 210.276C377.07 210.669 376.576 210.865 375.994 210.865ZM396.351 227.604L399.885 229.523C399.024 230.726 397.928 231.689 396.598 232.411C395.281 233.133 393.849 233.494 392.304 233.494C390.556 233.494 388.96 233.044 387.516 232.145C386.085 231.246 384.938 230.042 384.077 228.535C383.228 227.015 382.804 225.337 382.804 223.5C382.804 222.107 383.051 220.808 383.545 219.605C384.039 218.389 384.717 217.325 385.578 216.413C386.452 215.488 387.465 214.766 388.618 214.247C389.771 213.728 390.999 213.468 392.304 213.468C393.849 213.468 395.281 213.829 396.598 214.551C397.928 215.273 399.024 216.242 399.885 217.458L396.351 219.377C395.819 218.744 395.198 218.262 394.489 217.933C393.78 217.591 393.051 217.42 392.304 217.42C391.265 217.42 390.322 217.705 389.473 218.275C388.637 218.832 387.972 219.573 387.478 220.498C386.997 221.41 386.756 222.411 386.756 223.5C386.756 224.577 387.003 225.577 387.497 226.502C387.991 227.414 388.656 228.149 389.492 228.706C390.341 229.263 391.278 229.542 392.304 229.542C393.089 229.542 393.837 229.365 394.546 229.01C395.255 228.655 395.857 228.187 396.351 227.604ZM420.556 223.063V233H416.604V223.139C416.604 222.062 416.376 221.081 415.92 220.194C415.477 219.307 414.882 218.604 414.134 218.085C413.387 217.566 412.557 217.306 411.645 217.306C410.657 217.306 409.815 217.566 409.118 218.085C408.422 218.604 407.883 219.307 407.503 220.194C407.136 221.081 406.952 222.062 406.952 223.139V233H402.981V204.5H406.933V216.223C407.465 215.197 408.162 214.488 409.023 214.095C409.897 213.69 410.898 213.487 412.025 213.487C413.735 213.487 415.224 213.924 416.49 214.798C417.757 215.672 418.745 216.837 419.454 218.294C420.164 219.738 420.531 221.328 420.556 223.063ZM438.716 214H442.668V233H438.697L438.545 230.245C437.988 231.22 437.234 232.006 436.284 232.601C435.347 233.196 434.232 233.494 432.94 233.494C431.534 233.494 430.217 233.234 428.988 232.715C427.772 232.183 426.696 231.448 425.758 230.511C424.834 229.574 424.105 228.497 423.573 227.281C423.054 226.052 422.794 224.735 422.794 223.329C422.794 221.974 423.048 220.701 423.554 219.51C424.061 218.307 424.764 217.255 425.663 216.356C426.563 215.457 427.601 214.754 428.779 214.247C429.97 213.728 431.243 213.468 432.598 213.468C433.979 213.468 435.195 213.785 436.246 214.418C437.31 215.039 438.184 215.837 438.868 216.812L438.716 214ZM433.035 229.675C434.175 229.675 435.157 229.39 435.98 228.82C436.816 228.25 437.443 227.484 437.861 226.521C438.292 225.558 438.476 224.494 438.412 223.329C438.336 222.214 438.039 221.201 437.519 220.289C437.013 219.377 436.335 218.655 435.486 218.123C434.638 217.578 433.675 217.306 432.598 217.306C431.471 217.306 430.451 217.591 429.539 218.161C428.64 218.731 427.943 219.497 427.449 220.46C426.955 221.423 426.74 222.493 426.803 223.671C426.879 224.773 427.209 225.78 427.791 226.692C428.387 227.604 429.14 228.332 430.052 228.877C430.977 229.409 431.971 229.675 433.035 229.675ZM464.848 223.044V233H460.896V223.12C460.896 222.043 460.668 221.068 460.212 220.194C459.768 219.307 459.154 218.604 458.369 218.085C457.596 217.553 456.716 217.287 455.728 217.287C454.74 217.287 453.872 217.553 453.125 218.085C452.39 218.604 451.814 219.307 451.396 220.194C450.99 221.068 450.788 222.043 450.788 223.12V233H446.836V214H450.788V216.565C451.446 215.602 452.244 214.849 453.182 214.304C454.119 213.747 455.177 213.468 456.355 213.468C458.065 213.468 459.547 213.905 460.801 214.779C462.067 215.653 463.055 216.812 463.765 218.256C464.474 219.7 464.835 221.296 464.848 223.044ZM486.668 223.044V233H482.716V223.12C482.716 222.043 482.488 221.068 482.032 220.194C481.589 219.307 480.974 218.604 480.189 218.085C479.416 217.553 478.536 217.287 477.548 217.287C476.56 217.287 475.692 217.553 474.945 218.085C474.21 218.604 473.634 219.307 473.216 220.194C472.811 221.068 472.608 222.043 472.608 223.12V233H468.656V214H472.608V216.565C473.267 215.602 474.065 214.849 475.002 214.304C475.939 213.747 476.997 213.468 478.175 213.468C479.885 213.468 481.367 213.905 482.621 214.779C483.888 215.653 484.876 216.812 485.585 218.256C486.294 219.7 486.655 221.296 486.668 223.044ZM498.585 233.494C496.837 233.494 495.241 233.044 493.797 232.145C492.366 231.246 491.22 230.042 490.358 228.535C489.51 227.015 489.085 225.337 489.085 223.5C489.085 222.107 489.332 220.808 489.826 219.605C490.32 218.389 490.998 217.325 491.859 216.413C492.733 215.488 493.747 214.766 494.899 214.247C496.052 213.728 497.281 213.468 498.585 213.468C500.042 213.468 501.378 213.772 502.594 214.38C503.81 214.975 504.849 215.805 505.71 216.869C506.572 217.92 507.205 219.136 507.61 220.517C508.016 221.885 508.136 223.342 507.971 224.887H493.322C493.487 225.761 493.804 226.553 494.272 227.262C494.754 227.959 495.362 228.51 496.096 228.915C496.844 229.32 497.673 229.529 498.585 229.542C499.548 229.542 500.422 229.301 501.207 228.82C502.005 228.339 502.658 227.674 503.164 226.825L507.173 227.756C506.413 229.441 505.267 230.821 503.734 231.898C502.202 232.962 500.485 233.494 498.585 233.494ZM493.189 221.866H503.981C503.855 220.954 503.532 220.131 503.012 219.396C502.506 218.649 501.866 218.06 501.093 217.629C500.333 217.186 499.497 216.964 498.585 216.964C497.686 216.964 496.85 217.179 496.077 217.61C495.317 218.041 494.684 218.63 494.177 219.377C493.683 220.112 493.354 220.941 493.189 221.866ZM511.272 233V204.5H515.205V233H511.272ZM529.116 233V206.4H538.274C539.705 206.4 540.997 206.755 542.15 207.464C543.315 208.173 544.24 209.13 544.924 210.333C545.621 211.536 545.969 212.866 545.969 214.323C545.969 215.805 545.614 217.148 544.905 218.351C544.208 219.542 543.277 220.492 542.112 221.201C540.947 221.91 539.667 222.265 538.274 222.265H533.068V233H529.116ZM533.068 218.313H537.875C538.635 218.313 539.325 218.123 539.946 217.743C540.579 217.363 541.08 216.856 541.447 216.223C541.827 215.59 542.017 214.874 542.017 214.076C542.017 213.278 541.827 212.562 541.447 211.929C541.08 211.283 540.579 210.776 539.946 210.409C539.325 210.029 538.635 209.839 537.875 209.839H533.068V218.313ZM549.754 233V204.5H553.687V233H549.754ZM573.46 214H577.412V233H573.441L573.289 230.245C572.732 231.22 571.978 232.006 571.028 232.601C570.091 233.196 568.976 233.494 567.684 233.494C566.278 233.494 564.961 233.234 563.732 232.715C562.516 232.183 561.44 231.448 560.502 230.511C559.578 229.574 558.849 228.497 558.317 227.281C557.798 226.052 557.538 224.735 557.538 223.329C557.538 221.974 557.792 220.701 558.298 219.51C558.805 218.307 559.508 217.255 560.407 216.356C561.307 215.457 562.345 214.754 563.523 214.247C564.714 213.728 565.987 213.468 567.342 213.468C568.723 213.468 569.939 213.785 570.99 214.418C572.054 215.039 572.928 215.837 573.612 216.812L573.46 214ZM567.779 229.675C568.919 229.675 569.901 229.39 570.724 228.82C571.56 228.25 572.187 227.484 572.605 226.521C573.036 225.558 573.22 224.494 573.156 223.329C573.08 222.214 572.783 221.201 572.263 220.289C571.757 219.377 571.079 218.655 570.23 218.123C569.382 217.578 568.419 217.306 567.342 217.306C566.215 217.306 565.195 217.591 564.283 218.161C563.384 218.731 562.687 219.497 562.193 220.46C561.699 221.423 561.484 222.493 561.547 223.671C561.623 224.773 561.953 225.78 562.535 226.692C563.131 227.604 563.884 228.332 564.796 228.877C565.721 229.409 566.715 229.675 567.779 229.675ZM591.992 217.952H588.002L587.983 233H584.031L584.05 217.952H581.029V214H584.05L584.031 208.034H587.983L588.002 214H591.992V217.952ZM600.276 209.687V214H605.634V217.952H600.276V233H596.324V217.952H594.063V214H596.324V209.687C596.324 208.648 596.578 207.705 597.084 206.856C597.591 205.995 598.269 205.311 599.117 204.804C599.979 204.297 600.935 204.044 601.986 204.044C602.746 204.044 603.487 204.196 604.209 204.5C604.931 204.804 605.577 205.273 606.147 205.906L603.316 208.699C603.177 208.471 602.981 208.3 602.727 208.186C602.487 208.059 602.24 207.996 601.986 207.996C601.518 207.996 601.112 208.161 600.77 208.49C600.441 208.819 600.276 209.218 600.276 209.687ZM616.704 233.494C614.956 233.494 613.36 233.044 611.916 232.145C610.485 231.246 609.339 230.042 608.477 228.535C607.629 227.015 607.204 225.337 607.204 223.5C607.204 222.107 607.451 220.808 607.945 219.605C608.439 218.389 609.117 217.325 609.978 216.413C610.852 215.488 611.866 214.766 613.018 214.247C614.171 213.728 615.4 213.468 616.704 213.468C618.452 213.468 620.042 213.918 621.473 214.817C622.917 215.716 624.064 216.926 624.912 218.446C625.774 219.966 626.204 221.651 626.204 223.5C626.204 224.881 625.957 226.173 625.463 227.376C624.969 228.579 624.285 229.643 623.411 230.568C622.55 231.48 621.543 232.196 620.39 232.715C619.25 233.234 618.022 233.494 616.704 233.494ZM616.704 229.542C617.756 229.542 618.699 229.263 619.535 228.706C620.371 228.149 621.03 227.414 621.511 226.502C622.005 225.577 622.252 224.577 622.252 223.5C622.252 222.398 621.999 221.385 621.492 220.46C620.998 219.535 620.333 218.801 619.497 218.256C618.661 217.699 617.73 217.42 616.704 217.42C615.666 217.42 614.722 217.699 613.873 218.256C613.037 218.813 612.372 219.554 611.878 220.479C611.397 221.404 611.156 222.411 611.156 223.5C611.156 224.627 611.41 225.647 611.916 226.559C612.423 227.471 613.094 228.199 613.93 228.744C614.779 229.276 615.704 229.542 616.704 229.542ZM640.503 217.971C640.174 217.768 639.813 217.61 639.42 217.496C639.04 217.369 638.622 217.306 638.166 217.306C637.178 217.306 636.317 217.566 635.582 218.085C634.847 218.604 634.271 219.307 633.853 220.194C633.448 221.081 633.245 222.062 633.245 223.139V233H629.274V214H633.226V216.565C633.885 215.615 634.683 214.868 635.62 214.323C636.57 213.766 637.628 213.487 638.793 213.487C639.224 213.487 639.629 213.506 640.009 213.544C640.402 213.582 640.775 213.658 641.13 213.772L640.503 217.971ZM643.342 233V214H647.294V216.299C647.902 215.552 648.542 214.944 649.213 214.475C649.897 213.994 650.708 213.753 651.645 213.753C653.039 213.753 654.274 214.07 655.35 214.703C656.44 215.324 657.352 216.191 658.086 217.306C658.821 216.179 659.733 215.305 660.822 214.684C661.924 214.063 663.153 213.753 664.508 213.753C666.142 213.753 667.58 214.165 668.821 214.988C670.063 215.811 671.038 216.907 671.747 218.275C672.457 219.63 672.811 221.125 672.811 222.759V233H668.859V222.759C668.859 221.822 668.676 220.973 668.308 220.213C667.954 219.453 667.453 218.845 666.807 218.389C666.161 217.933 665.395 217.705 664.508 217.705C663.647 217.705 662.874 217.933 662.19 218.389C661.519 218.845 660.993 219.453 660.613 220.213C660.246 220.973 660.062 221.822 660.062 222.759V233H656.11V222.759C656.11 221.822 655.92 220.973 655.54 220.213C655.16 219.453 654.635 218.845 653.963 218.389C653.292 217.933 652.519 217.705 651.645 217.705C650.809 217.705 650.062 217.946 649.403 218.427C648.757 218.908 648.244 219.542 647.864 220.327C647.484 221.112 647.294 221.974 647.294 222.911V233H643.342Z" fill="black"/>
</svg>
