<?xml version="1.0" standalone="no"?>
<!DOCTYPE svg PUBLIC "-//W3C//DTD SVG 20010904//EN"
 "http://www.w3.org/TR/2001/REC-SVG-20010904/DTD/svg10.dtd">
<svg version="1.0" xmlns="http://www.w3.org/2000/svg"
 width="681.000000pt" height="281.000000pt" viewBox="0 0 681.000000 281.000000"
 preserveAspectRatio="xMidYMid meet">

<g transform="translate(0.000000,281.000000) scale(0.100000,-0.100000)"
fill="#000000" stroke="none">
<path d="M634 2799 c-226 -27 -440 -179 -548 -388 -82 -159 -81 -150 -81 -781
0 -622 -2 -607 75 -765 71 -147 186 -260 335 -331 124 -59 167 -66 418 -71
l227 -5 0 -97 c0 -116 22 -173 92 -238 89 -81 194 -117 338 -116 154 0 287 46
446 153 247 167 368 376 421 727 15 102 17 198 18 698 0 662 0 663 -83 828
-88 176 -259 314 -459 369 -75 21 -99 22 -603 24 -289 1 -557 -2 -596 -7z
m203 -1071 c85 -85 29 -228 -90 -228 -107 0 -171 105 -122 201 41 78 147 91
212 27z m424 19 c79 -52 87 -141 19 -209 -34 -34 -43 -38 -90 -38 -47 0 -56 4
-90 38 -24 24 -41 52 -45 75 -14 74 57 157 135 157 22 0 51 -9 71 -23z m469
-12 c87 -83 40 -221 -79 -233 -39 -3 -57 0 -84 17 -85 52 -87 180 -5 231 49
31 128 24 168 -15z"/>
<path d="M4704 2579 c-85 -24 -180 -121 -204 -207 -5 -20 -10 -97 -10 -169 l0
-133 -55 0 -55 0 0 -119 0 -120 53 -3 52 -3 3 -377 2 -378 120 0 120 0 0 380
0 380 135 0 135 0 0 120 0 120 -135 0 -135 0 0 118 c0 111 1 120 23 140 27 25
64 28 93 8 19 -14 26 -10 104 69 l84 84 -20 22 c-10 12 -46 35 -79 50 -49 24
-72 29 -130 28 -38 0 -84 -5 -101 -10z"/>
<path d="M2956 2459 c4 -7 113 -159 244 -338 130 -179 239 -331 243 -337 5 -9
-406 -591 -495 -701 -8 -10 22 -13 143 -12 l154 0 175 244 c96 134 178 244
181 244 4 1 87 -109 185 -244 l177 -245 149 0 c81 0 148 2 148 5 0 3 -108 153
-239 334 -132 180 -245 337 -252 348 -11 19 6 46 186 294 110 151 223 307 253
347 l53 73 -153 -3 -152 -3 -124 -170 c-68 -93 -148 -203 -177 -243 l-52 -73
-178 246 -177 245 -150 0 c-109 0 -147 -3 -142 -11z"/>
<path d="M5222 2453 c-83 -41 -83 -176 0 -219 76 -39 174 10 185 93 14 102
-90 173 -185 126z"/>
<path d="M5160 1570 l0 -500 120 0 120 0 0 500 0 500 -120 0 -120 0 0 -500z"/>
<path d="M5685 2053 c4 -10 86 -235 182 -500 l176 -483 157 0 157 0 176 483
c96 265 178 490 182 500 7 16 -3 17 -122 17 -125 0 -130 -1 -140 -22 -5 -13
-63 -173 -129 -355 -65 -183 -121 -333 -124 -333 -3 0 -43 105 -89 233 -46
127 -104 287 -128 355 l-45 122 -130 0 c-120 0 -130 -1 -123 -17z"/>
<path d="M5980 750 c-11 -11 -20 -33 -20 -50 0 -16 -4 -30 -10 -30 -5 0 -10
-9 -10 -20 0 -11 5 -20 10 -20 6 0 10 -32 10 -75 0 -68 2 -75 20 -75 18 0 20
7 20 75 l0 75 30 0 c23 0 30 4 30 20 0 16 -7 20 -30 20 -25 0 -30 4 -30 25 0
15 7 28 18 32 32 12 44 25 30 34 -22 14 -47 10 -68 -11z"/>
<path d="M4030 620 c0 -133 1 -140 20 -140 18 0 20 7 20 63 0 73 21 104 60 92
27 -9 40 -43 40 -106 0 -37 4 -49 15 -49 12 0 15 14 15 69 0 55 -4 74 -21 96
-19 23 -28 26 -65 23 l-44 -3 0 47 c0 41 -3 48 -20 48 -19 0 -20 -7 -20 -140z"/>
<path d="M5110 620 c0 -133 1 -140 20 -140 19 0 20 7 20 140 0 133 -1 140 -20
140 -19 0 -20 -7 -20 -140z"/>
<path d="M5500 620 c0 -133 1 -140 20 -140 19 0 20 7 20 140 0 133 -1 140 -20
140 -19 0 -20 -7 -20 -140z"/>
<path d="M2975 740 c-44 -18 -69 -58 -73 -120 -4 -59 -4 -61 36 -100 34 -34
46 -40 81 -40 50 0 92 20 114 53 73 111 -38 257 -158 207z m96 -40 c29 -16 52
-68 45 -105 -7 -35 -38 -69 -73 -79 -33 -10 -82 20 -99 61 -35 82 49 164 127
123z"/>
<path d="M5290 615 c0 -128 1 -135 20 -135 18 0 20 7 20 55 l0 55 40 0 c46 0
90 34 90 69 0 60 -43 91 -126 91 l-44 0 0 -135z m124 73 c17 -27 -5 -52 -48
-56 l-36 -3 0 41 0 41 36 -3 c22 -2 42 -10 48 -20z"/>
<path d="M3742 723 c2 -10 10 -18 18 -18 8 0 16 8 18 18 2 12 -3 17 -18 17
-15 0 -20 -5 -18 -17z"/>
<path d="M5840 700 c0 -20 -5 -30 -15 -30 -8 0 -15 -9 -15 -20 0 -11 7 -20 15
-20 12 0 15 -15 15 -75 0 -68 2 -75 20 -75 18 0 20 7 20 75 0 68 2 75 20 75
13 0 20 7 20 20 0 13 -7 20 -20 20 -16 0 -20 7 -20 30 0 23 -4 30 -20 30 -16
0 -20 -7 -20 -30z"/>
<path d="M3190 574 c0 -87 1 -94 20 -94 18 0 20 7 20 63 0 68 10 87 47 87 29
0 43 -33 43 -101 0 -35 4 -49 14 -49 10 0 15 18 18 66 4 68 14 84 54 84 28 0
34 -17 34 -91 0 -52 2 -59 20 -59 18 0 20 7 20 70 0 62 -3 74 -25 95 -28 29
-85 34 -105 10 -10 -12 -15 -12 -33 -1 -12 8 -46 14 -74 14 l-53 0 0 -94z"/>
<path d="M3520 575 c0 -88 1 -95 20 -95 18 0 20 7 20 63 0 49 4 68 18 80 24
22 38 21 62 -3 16 -16 20 -33 20 -80 0 -53 2 -60 20 -60 18 0 20 7 20 60 0 64
-18 113 -45 124 -27 10 -70 7 -83 -6 -9 -9 -12 -9 -12 0 0 7 -9 12 -20 12 -19
0 -20 -7 -20 -95z"/>
<path d="M3740 575 c0 -88 1 -95 20 -95 19 0 20 7 20 95 0 88 -1 95 -20 95
-19 0 -20 -7 -20 -95z"/>
<path d="M3869 657 c-71 -54 -36 -177 50 -177 46 0 82 23 64 41 -10 10 -18 10
-39 0 -39 -18 -74 8 -74 54 0 45 34 71 74 56 14 -6 33 -8 41 -4 14 5 14 8 -1
24 -20 22 -90 26 -115 6z"/>
<path d="M4269 657 c-9 -7 -21 -22 -27 -34 -44 -83 47 -176 129 -133 13 7 19
7 19 0 0 -5 9 -10 20 -10 19 0 20 7 20 95 0 88 -1 95 -20 95 -11 0 -20 -5 -20
-10 0 -7 -6 -7 -19 0 -26 14 -82 12 -102 -3z m89 -33 c32 -22 30 -78 -4 -100
-24 -16 -27 -16 -52 3 -36 27 -42 75 -10 97 28 20 38 20 66 0z"/>
<path d="M4470 575 c0 -88 1 -95 20 -95 18 0 20 7 20 63 0 49 4 68 18 80 24
22 38 21 62 -3 16 -16 20 -33 20 -80 0 -53 2 -60 20 -60 18 0 20 7 20 60 0 64
-18 113 -45 124 -27 10 -70 7 -83 -6 -9 -9 -12 -9 -12 0 0 7 -9 12 -20 12 -19
0 -20 -7 -20 -95z"/>
<path d="M4690 574 c0 -87 1 -94 20 -94 18 0 20 7 20 64 0 90 34 122 80 76 16
-16 20 -33 20 -80 0 -53 2 -60 20 -60 18 0 20 7 20 54 0 107 -25 136 -115 134
l-65 -1 0 -93z"/>
<path d="M4919 644 c-18 -19 -24 -37 -24 -69 0 -60 33 -95 90 -95 31 0 47 6
65 25 19 20 20 26 8 30 -8 3 -27 -1 -43 -9 -30 -16 -51 -10 -75 18 -11 14 -4
16 64 16 74 0 76 1 76 24 0 14 -12 38 -26 55 -35 42 -98 44 -135 5z m106 -24
c24 -27 17 -32 -44 -28 -51 3 -51 3 -36 26 20 27 56 28 80 2z"/>
<path d="M5605 645 c-56 -55 -14 -165 64 -165 20 0 42 5 49 12 9 9 12 9 12 0
0 -7 9 -12 20 -12 19 0 20 7 20 95 0 78 -3 95 -15 95 -8 0 -15 -5 -15 -10 0
-7 -6 -7 -19 0 -36 19 -90 12 -116 -15z m105 -25 c27 -27 26 -75 -2 -94 -29
-20 -41 -20 -68 2 -14 11 -22 29 -22 47 0 30 31 65 58 65 8 0 23 -9 34 -20z"/>
<path d="M6102 647 c-43 -46 -34 -129 17 -157 87 -46 173 49 126 139 -17 33
-33 41 -84 41 -26 0 -44 -7 -59 -23z m96 -23 c37 -26 25 -91 -20 -107 -23 -8
-68 29 -68 56 0 27 9 40 35 55 26 15 27 15 53 -4z"/>
<path d="M6290 575 c0 -88 1 -95 20 -95 18 0 20 7 20 58 0 65 15 94 51 97 13
1 25 9 27 18 3 13 -4 17 -25 17 -16 0 -34 -5 -41 -12 -9 -9 -12 -9 -12 0 0 7
-9 12 -20 12 -19 0 -20 -7 -20 -95z"/>
<path d="M6430 575 c0 -88 1 -95 20 -95 18 0 20 7 20 56 0 66 13 94 43 94 37
0 47 -19 47 -87 0 -56 2 -63 20 -63 18 0 20 7 20 56 0 67 13 94 45 94 32 0 45
-27 45 -94 0 -49 2 -56 20 -56 18 0 20 7 20 60 0 64 -18 113 -45 124 -29 11
-72 6 -85 -9 -11 -13 -15 -13 -33 0 -26 18 -69 19 -85 3 -9 -9 -12 -9 -12 0 0
7 -9 12 -20 12 -19 0 -20 -7 -20 -95z"/>
</g>
</svg>
